<?xml version="1.0" encoding="utf-8"?>
<!-- Generator: Adobe Illustrator 22.1.0, SVG Export Plug-In . SVG Version: 6.00 Build 0)  -->
<svg version="1.1" id="Layer_1" xmlns="http://www.w3.org/2000/svg" xmlns:xlink="http://www.w3.org/1999/xlink" x="0px" y="0px"
	 viewBox="0 0 176 176" style="enable-background:new 0 0 176 176;" xml:space="preserve">
<style type="text/css">
	.st0{fill:none;}
	.st1{fill:#757575;}
</style>
<rect class="st0" width="176" height="176"/>
<g>
	<path class="st1" d="M54.6,52L23.2,70v36l31.4,18L86,106V70L54.6,52z M58.6,90.4c0,1.4-0.1,2.7-0.6,4c-0.4,1.2-1,2.3-1.9,3.2
		c-0.9,0.9-1.9,1.6-3.2,2s-2.9,0.7-4.6,0.7c-1.7,0-3.3-0.3-4.6-0.7c-1.3-0.4-2.3-1.2-3.2-2c-0.9-0.9-1.4-1.9-1.9-3.2
		c-0.4-1.2-0.6-2.6-0.6-4V75h5v14.5c0,1.2,0.1,2,0.4,2.9c0.3,0.7,0.6,1.4,1,1.9c0.4,0.4,1,0.9,1.6,1s1.3,0.3,2,0.3
		c1.6,0,2.7-0.4,3.7-1.4c1-0.9,1.4-2.6,1.4-4.8V75h5v15.4H58.6z M69.4,99.8h-5V75h5V99.8z"/>
	<path class="st1" d="M121.4,52L90,70v36l31.4,18l31.4-18V70L121.4,52z M120.4,90.4c0,1.4-0.1,2.7-0.6,4c-0.4,1.3-1,2.3-1.9,3.2
		c-0.9,0.9-1.9,1.6-3.2,2c-1.3,0.4-2.9,0.7-4.6,0.7s-3.3-0.3-4.6-0.7c-1.3-0.4-2.3-1.2-3.2-2c-0.9-0.9-1.4-1.9-1.9-3.2
		c-0.4-1.2-0.6-2.6-0.6-4V75h5v14.5c0,1.2,0.1,2,0.4,2.9c0.3,0.7,0.6,1.4,1,1.9s1,0.9,1.6,1s1.3,0.3,2,0.3c1.6,0,2.7-0.4,3.7-1.4
		c1-0.9,1.4-2.6,1.4-4.8V75h5v15.4H120.4z M137.7,99.8l-5.3-8.5l-5.3,8.5h-5.6l8.2-13L122.1,75h5.6l4.6,7.3L137,75h5.6l-7.3,11.8
		l8.2,13H137.7z"/>
</g>
</svg>
